# xmcd
#
# Track frame offsets:
#	150
#	18380
#	43622
#	61685
#	78262
#	97387
#	112200
#	129267
#	159590
#	184145
#	210140
#
# Disc length: 3087
#
# Revision: 1
# Processed by: cddbd v1.5.1PL0 Copyright (c) Steve Scherf et al.
# Submitted via: CDex 1.51
# Normalized: r0:TDELIM( - )
#
DISCID=8b0c0d0b
DTITLE=Various Artist - Best of Smooth Jazz - Vol. 4
DYEAR=1900
DGENRE=Jazz
TTITLE0=Earl Klugh - Maybe Tonight
TTITLE1=Al Jarreau - Your Song
TTITLE2=Fourplay feat. Phil Collins - Why Can't It Wait Till Morning
TTITLE3=David Sanborn - All I Need Is You
TTITLE4=James Ingram and Patti Austin - How Do You Keep The Music Playing
TTITLE5=George Benson - This Masquerade
TTITLE6=K.D. Lang - Skylark
TTITLE7=Fourplay feat. Chaka Khan and Nathan East - Between The Sheets
TTITLE8=Boney James - Seduction
TTITLE9=George Duke - No Rhyme
TTITLE10=Michael Franks - Hourglass
EXTD=
EXTT0=
EXTT1=
EXTT2=
EXTT3=
EXTT4=
EXTT5=
EXTT6=
EXTT7=
EXTT8=
EXTT9=
EXTT10=
PLAYORDER=
